<svg aria-hidden="true" style="position: absolute; width: 0; height: 0; overflow: hidden;" version="1.1" xmlns="http://www.w3.org/2000/svg" xmlns:xlink="http://www.w3.org/1999/xlink">
<defs>
<symbol id="icon-twitter" viewBox="0 0 32 32">
<path d="M32 6.078c-1.1 0.493-2.376 0.857-3.713 1.028l-0.068 0.007c1.36-0.817 2.382-2.078 2.873-3.579l0.013-0.046c-1.198 0.722-2.591 1.273-4.076 1.573l-0.084 0.014c-1.2-1.279-2.9-2.076-4.787-2.076-3.622 0-6.558 2.936-6.558 6.558 0 0.001 0 0.003 0 0.004v-0c0 0.52 0.043 1.021 0.152 1.496-5.454-0.266-10.28-2.88-13.522-6.861-0.564 0.949-0.899 2.092-0.902 3.313v0.001c0 2.272 1.171 4.286 2.914 5.451-1.091-0.030-2.107-0.325-2.994-0.823l0.033 0.017v0.072c0.003 3.165 2.236 5.807 5.213 6.44l0.043 0.008c-0.499 0.136-1.071 0.215-1.662 0.215-0.020 0-0.041-0-0.061-0l0.003 0c-0.419 0-0.843-0.024-1.242-0.112 0.85 2.598 3.261 4.509 6.13 4.57-2.215 1.746-5.046 2.8-8.123 2.8-0.004 0-0.008 0-0.012 0h0.001c-0.538 0-1.053-0.026-1.57-0.091 2.827 1.846 6.287 2.944 10.004 2.944 0.021 0 0.042-0 0.063-0h-0.003c12.072 0 18.672-10 18.672-18.669 0-0.288-0.010-0.57-0.024-0.848 1.299-0.936 2.391-2.065 3.258-3.356l0.030-0.047z"></path>
</symbol>
<symbol id="icon-linkedin" viewBox="0 0 32 32">
<path d="M31.992 32h0.008v-11.738c0-5.741-1.237-10.163-7.947-10.163-3.227 0-5.392 1.77-6.277 3.45h-0.093v-2.914h-6.365v21.363h6.627v-10.578c0-2.786 0.528-5.48 3.978-5.48 3.398 0 3.448 3.179 3.448 5.658v10.402h6.621zM0.528 10.635h6.635v21.365h-6.635v-21.365zM3.843 0c-2.123 0-3.843 1.721-3.843 3.843v0c0 2.12 1.722 3.878 3.843 3.878 2.12 0 3.842-1.757 3.842-3.878s-1.72-3.841-3.841-3.843h-0z"></path>
</symbol>
<symbol id="icon-instagram" viewBox="0 0 32 32">
<path d="M31.968 9.408c-0.074-1.701-0.349-2.869-0.742-3.882-0.424-1.111-1.054-2.059-1.85-2.837l-0.001-0.001c-0.78-0.792-1.724-1.419-2.778-1.827l-0.054-0.018c-1.019-0.394-2.181-0.667-3.882-0.742-1.712-0.082-2.256-0.101-6.602-0.101-4.344 0-4.888 0.019-6.595 0.094-1.699 0.074-2.869 0.349-3.88 0.742-1.112 0.424-2.060 1.054-2.839 1.85l-0.001 0.001c-0.791 0.78-1.418 1.724-1.825 2.778l-0.018 0.054c-0.395 1.019-0.669 2.181-0.744 3.882-0.082 1.712-0.101 2.256-0.101 6.602 0 4.344 0.019 4.888 0.094 6.595 0.075 1.701 0.35 2.869 0.744 3.882 0.426 1.11 1.055 2.057 1.849 2.837l0.001 0.001c0.8 0.813 1.77 1.443 2.832 1.843 1.019 0.395 2.182 0.67 3.882 0.744 1.707 0.075 2.251 0.094 6.595 0.094 4.346 0 4.89-0.019 6.595-0.094 1.701-0.074 2.869-0.349 3.882-0.742 2.157-0.85 3.833-2.526 4.664-4.628l0.019-0.055c0.394-1.019 0.669-2.182 0.744-3.882 0.075-1.707 0.093-2.251 0.093-6.595s-0.006-4.888-0.080-6.595zM29.088 22.474c-0.070 1.563-0.333 2.406-0.55 2.97-0.552 1.399-1.64 2.486-3.004 3.024l-0.036 0.012c-0.56 0.219-1.411 0.482-2.968 0.55-1.688 0.075-2.194 0.094-6.464 0.094-4.269 0-4.782-0.019-6.464-0.094-1.563-0.069-2.406-0.331-2.97-0.55-0.721-0.269-1.334-0.676-1.836-1.192l-0.001-0.001c-0.517-0.503-0.924-1.117-1.184-1.803l-0.011-0.034c-0.218-0.563-0.48-1.413-0.549-2.97-0.075-1.688-0.094-2.195-0.094-6.464 0-4.27 0.019-4.784 0.094-6.464 0.069-1.563 0.331-2.406 0.549-2.97 0.269-0.722 0.678-1.337 1.198-1.837l0.002-0.002c0.504-0.517 1.119-0.923 1.806-1.182l0.034-0.011c0.56-0.219 1.411-0.48 2.968-0.55 1.688-0.074 2.195-0.093 6.464-0.093 4.275 0 4.782 0.019 6.464 0.093 1.563 0.069 2.406 0.331 2.97 0.55 0.693 0.256 1.325 0.662 1.837 1.194 0.531 0.52 0.938 1.144 1.195 1.84 0.218 0.56 0.48 1.411 0.549 2.968 0.075 1.688 0.094 2.194 0.094 6.464 0 4.269-0.019 4.768-0.094 6.458z"></path>
<path d="M16.059 7.782c-4.539 0.002-8.218 3.682-8.219 8.221v0c0.091 4.471 3.737 8.060 8.221 8.060s8.13-3.589 8.221-8.052l0-0.009c-0.001-4.54-3.681-8.22-8.221-8.221h-0zM16.059 21.334c-2.945-0-5.332-2.388-5.332-5.333s2.388-5.333 5.333-5.333c0 0 0.001 0 0.001 0h-0c2.946 0 5.334 2.388 5.334 5.334s-2.388 5.334-5.334 5.334v0zM26.525 7.458c0 1.060-0.86 1.92-1.92 1.92s-1.92-0.86-1.92-1.92v0c0-1.060 0.86-1.92 1.92-1.92s1.92 0.86 1.92 1.92v0z"></path>
</symbol>
<symbol id="icon-facebook" viewBox="0 0 32 32">
<path d="M21.328 5.312h2.923v-5.088c-1.232-0.143-2.66-0.224-4.108-0.224-0.052 0-0.104 0-0.156 0l0.008-0c-4.213 0-7.099 2.65-7.099 7.52v4.48h-4.646v5.688h4.646v14.312h5.699v-14.31h4.459l0.707-5.688h-5.168v-3.922c0-1.643 0.443-2.768 2.734-2.768z"></path>
</symbol>
<symbol id="icon-antenna" viewBox="0 0 32 32">
<path fill="#212121" style="fill: var(--color2, #212121)" d="M30.78 22.103l-8.445-8.507 0.937-4.616c0.242 0.094 0.499 0.144 0.758 0.146h0.006c0.008 0 0.017 0 0.026 0 1.193 0 2.16-0.967 2.16-2.16s-0.967-2.16-2.16-2.16c-1.193 0-2.16 0.967-2.16 2.16 0 0.26 0.046 0.508 0.13 0.739l-0.005-0.015-4.961 0.605-8.093-8.135c-0.096-0.098-0.229-0.159-0.377-0.16h-0c-0.146 0.001-0.277 0.060-0.373 0.155l0-0-1.513 1.504c-0.096 0.097-0.156 0.23-0.156 0.377s0.060 0.28 0.156 0.377v0l0.814 0.826c-1.143 2.063-1.816 4.523-1.816 7.141 0 4.106 1.656 7.826 4.337 10.528l-0.001-0.001c0.041 0.040 0.090 0.073 0.143 0.097l0.003 0.001c-0.034 0.18-0.051 0.364-0.052 0.547v6.189h-6.402c-1.473 0.002-2.666 1.195-2.668 2.668v1.067c0 0.295 0.239 0.533 0.533 0.533h24.539c0.294 0 0.533-0.239 0.533-0.533v0-1.067c-0.002-1.473-1.195-2.666-2.668-2.668h-6.402v-2.743c0.916 0.201 1.968 0.317 3.047 0.32h0.002c2.58-0.003 5.006-0.663 7.119-1.822l-0.077 0.039 0.818 0.823c0.096 0.098 0.229 0.159 0.377 0.16h0c0.146-0.001 0.277-0.060 0.373-0.155l-0 0 1.513-1.504c0.096-0.097 0.156-0.23 0.156-0.377s-0.060-0.28-0.156-0.377v0zM23.286 6.235c0.193-0.192 0.458-0.31 0.752-0.31 0.589 0 1.066 0.477 1.066 1.066s-0.477 1.066-1.066 1.066h-0.003c-0.587-0.003-1.061-0.48-1.061-1.067 0-0.295 0.12-0.563 0.314-0.756l0-0h-0.002zM22.029 9.74l-0.598 2.947-1.175-1.182 1.774-1.763zM21.424 8.838l-1.92 1.909-1.485-1.493 3.406-0.415zM24.010 28.807c0.884 0 1.6 0.717 1.6 1.6v0 0.533h-23.473v-0.533c0-0.884 0.717-1.6 1.6-1.6v0h20.272zM16.541 26.674v1.067h-5.334v-1.067h5.334zM11.207 25.606v-4.054c0-1.294 1.196-2.348 2.668-2.348s2.668 1.053 2.668 2.348v4.054h-5.334zM17.608 23.91v-2.358c0-1.882-1.675-3.414-3.734-3.414-0.017-0-0.038-0-0.058-0-1.353 0-2.541 0.707-3.214 1.771l-0.009 0.016c-2.36-2.482-3.812-5.848-3.812-9.552 0-2.315 0.567-4.497 1.569-6.415l-0.036 0.077 18.607 18.713c-1.823 0.947-3.98 1.503-6.267 1.503-1.079 0-2.129-0.124-3.137-0.358l0.093 0.018zM28.9 23.226l-21.062-21.186 0.755-0.752 7.937 7.982c0.004 0 0.006 0.007 0.010 0.010l13.118 13.194-0.757 0.752z"></path>
<path fill="#2196f3" style="fill: var(--color3, #2196f3)" d="M13.879 20.272h-0.005c-0.001 0-0.001 0-0.002 0-0.884 0-1.6 0.717-1.6 1.6s0.715 1.599 1.598 1.6h0.005c0.001 0 0.001 0 0.002 0 0.884 0 1.6-0.717 1.6-1.6s-0.715-1.599-1.598-1.6h-0zM14.252 22.25c-0.094 0.084-0.218 0.135-0.355 0.135-0.295 0-0.534-0.239-0.534-0.534 0-0.137 0.052-0.263 0.137-0.357l-0 0c0.096-0.095 0.227-0.154 0.373-0.155h0c0.294 0 0.532 0.238 0.532 0.532 0 0.148-0.061 0.283-0.159 0.379l-0 0h0.005z"></path>
</symbol>
<symbol id="icon-astronaut" viewBox="0 0 32 32">
<path fill="#2196f3" style="fill: var(--color3, #2196f3)" d="M31.982 4.525c-0.064-0.191-0.227-0.332-0.427-0.363l-0.003-0-1.91-0.278-0.855-1.731c-0.179-0.365-0.777-0.365-0.956 0l-0.855 1.731-1.91 0.278c-0.259 0.040-0.456 0.262-0.456 0.529 0 0.149 0.061 0.284 0.159 0.381l0 0 1.383 1.348-0.326 1.903c-0.034 0.2 0.048 0.402 0.212 0.522 0.087 0.064 0.195 0.102 0.313 0.102 0.091 0 0.177-0.023 0.252-0.064l-0.003 0.001 1.709-0.899 1.709 0.899c0.071 0.038 0.156 0.060 0.246 0.060 0.296 0 0.536-0.24 0.536-0.536 0-0.031-0.003-0.061-0.008-0.090l0 0.003-0.326-1.903 1.383-1.348c0.099-0.097 0.161-0.233 0.161-0.383 0-0.059-0.009-0.115-0.027-0.168l0.001 0.004zM29.518 5.852c-0.099 0.097-0.161 0.232-0.161 0.382 0 0.032 0.003 0.063 0.008 0.093l-0-0.003 0.191 1.114-1-0.526c-0.072-0.039-0.158-0.062-0.249-0.062s-0.177 0.023-0.252 0.063l0.003-0.001-1.001 0.526 0.191-1.114c0.005-0.027 0.008-0.058 0.008-0.090 0-0.15-0.061-0.285-0.161-0.382l-0-0-0.81-0.789 1.119-0.163c0.178-0.026 0.325-0.137 0.401-0.289l0.001-0.003 0.5-1.013 0.5 1.013c0.078 0.155 0.225 0.265 0.399 0.292l0.003 0 1.119 0.163-0.809 0.789zM26.14 20.527h-1.067v1.067h1.067v-1.067zM26.14 22.662h-1.067v1.067h1.067v-1.067zM27.207 21.594h-1.067v1.067h1.067v-1.067zM25.073 21.594h-1.067v1.067h1.067v-1.067zM22.405 26.395h-1.067v1.067h1.067v-1.067zM22.405 28.529h-1.067v1.067h1.067v-1.067zM23.473 27.463h-1.067v1.067h1.067v-1.067zM21.338 27.463h-1.067v1.067h1.067v-1.067zM16.004 24.262h-1.067v1.067h1.067v-1.067zM16.004 26.395h-1.067v1.067h1.067v-1.067zM17.071 25.328h-1.067v1.067h1.067v-1.067zM14.937 25.328h-1.067v1.067h1.067v-1.067zM5.868 6.123h-1.067v1.067h1.067v-1.067zM5.868 8.257h-1.067v1.067h1.067v-1.067z"></path>
<path fill="#2196f3" style="fill: var(--color3, #2196f3)" d="M6.935 7.191h-1.067v1.067h1.067v-1.067zM4.801 7.191h-1.067v1.067h1.067v-1.067z"></path>
<path fill="#212121" style="fill: var(--color2, #212121)" d="M24.721 14.162c-0.28-0.377-0.699-0.636-1.179-0.704l-0.009-0.001c-0.076-0.012-0.164-0.018-0.254-0.018-0.411 0-0.789 0.139-1.090 0.373l0.004-0.003-1.252 0.96-1.898 1.417-1.358-0.541c2.422-1.086 4.115-3.509 4.115-6.322 0-3.824-3.124-6.935-6.963-6.935s-6.963 3.111-6.963 6.935c0 0 0 0.001 0 0.001 0 1.398 0.418 2.698 1.136 3.783l-0.016-0.025-2.77-0.024c-0.009 0-0.015 0.004-0.023 0.005-0.056 0.002-0.109 0.014-0.159 0.032l0.004-0.001-0.038 0.013c-0.006 0.003-0.013 0.003-0.019 0.006l-3.235 1.597-1.893 0.911c-0.024 0.011-0.045 0.023-0.064 0.036l0.001-0.001c-0.482 0.323-0.795 0.866-0.795 1.482 0 0.297 0.073 0.577 0.201 0.823l-0.005-0.010c0.22 0.429 0.595 0.745 1.056 0.889 0.161 0.053 0.346 0.083 0.538 0.083 0.308 0 0.597-0.078 0.85-0.216l-0.009 0.005 1.388-0.738 2.265-1.169 1.357-0.008-6.785 6.752c-0.316 0.315-0.49 0.732-0.49 1.178s0.174 0.863 0.49 1.179c0.325 0.323 0.752 0.485 1.179 0.485s0.854-0.162 1.18-0.485l1.314-1.309 1.741-1.3 0.901 0.897-3.104 3.089c-0.316 0.315-0.49 0.732-0.49 1.178s0.174 0.863 0.49 1.179c0.325 0.323 0.753 0.485 1.18 0.485s0.855-0.162 1.18-0.485l3.484-3.47 1.010-1-0.004-0.004c0.006-0.006 0.015-0.009 0.022-0.015l5.167-5.659 3.472 0.494c0.020 0.003 0.044 0.005 0.068 0.005 0.070 0 0.137-0.014 0.197-0.039l-0.003 0.001c0.018-0.006 0.033-0.015 0.050-0.023 0.019-0.010 0.039-0.015 0.058-0.027l3.214-2.134c0.012-0.008 0.018-0.021 0.029-0.029 0.013-0.010 0.029-0.014 0.041-0.026l1.271-1.191c0.662-0.62 0.753-1.635 0.212-2.363zM2.131 17.774c-0.098 0.054-0.215 0.086-0.34 0.086-0.078 0-0.153-0.012-0.223-0.036l0.005 0.001c-0.294-0.094-0.503-0.365-0.503-0.684 0-0.235 0.113-0.444 0.288-0.575l0.002-0.001 1.314-0.632 0.449 1.312-0.992 0.528zM5.629 15.946l-1.548 0.8-0.439-1.283 2.028-1.001-0.040 1.484zM20.732 9.324c-0.001 0.932-0.222 1.813-0.614 2.593l0.015-0.033-4.182-1.899c-0.044-0.575-0.343-1.073-0.782-1.384l-0.006-0.004 1.464-4.861c2.379 0.756 4.106 2.975 4.106 5.589zM8.94 9.324c0-3.236 2.645-5.868 5.895-5.868 0.253 0 0.5 0.021 0.745 0.052l-1.432 4.755c-0.019-0.001-0.037-0.006-0.057-0.006-1.033 0-1.873 0.837-1.873 1.867s0.84 1.867 1.873 1.867c0.694 0 1.294-0.383 1.618-0.945l3.863 1.755c-1.085 1.456-2.803 2.39-4.738 2.391h-0c-3.251 0-5.895-2.633-5.895-5.868zM14.898 10.124c0 0.441-0.362 0.8-0.806 0.8s-0.806-0.359-0.806-0.8c0-0.441 0.362-0.8 0.806-0.8s0.806 0.359 0.806 0.8zM2.466 25.152c-0.11 0.109-0.261 0.176-0.428 0.176s-0.317-0.067-0.427-0.175l0 0c-0.109-0.108-0.177-0.257-0.177-0.422s0.068-0.315 0.177-0.422l0-0 0.962-0.958 0.851 0.848-0.959 0.955zM5.68 28.887c-0.11 0.109-0.261 0.176-0.428 0.176s-0.317-0.067-0.427-0.175l0 0c-0.109-0.108-0.177-0.257-0.177-0.422s0.068-0.315 0.177-0.422l0-0 0.963-0.959 0.852 0.848-0.96 0.955zM9.162 25.417l-0.002 0.001-1.765 1.76-0.852-0.848 1.765-1.756c0.040-0.040 0.065-0.088 0.090-0.135 0.007-0.014 0.020-0.026 0.026-0.040 0.017-0.041 0.019-0.085 0.026-0.129 0.003-0.025 0.014-0.047 0.014-0.073 0-0.036-0.013-0.070-0.020-0.106-0.006-0.032-0.006-0.065-0.019-0.095-0.025-0.053-0.055-0.098-0.091-0.139l0 0c-0.010-0.012-0.014-0.027-0.025-0.038h-0.001l-0.001-0.002-1.607-1.6c-0.017-0.017-0.039-0.024-0.058-0.038-0.025-0.021-0.054-0.040-0.084-0.057l-0.003-0.001c-0.026-0.013-0.057-0.024-0.089-0.032l-0.004-0.001c-0.030-0.009-0.065-0.017-0.101-0.020l-0.002-0c-0.006-0-0.014-0-0.021-0-0.026 0-0.052 0.002-0.076 0.006l0.003-0c-0.039 0.004-0.074 0.011-0.108 0.021l0.004-0.001c-0.036 0.013-0.067 0.028-0.096 0.046l0.002-0.001c-0.020 0.011-0.042 0.015-0.061 0.029l-1.773 1.324-0.901-0.897 2.4-2.387 4.362 4.29-0.928 0.919zM15.983 18.398c-0.015-0.002-0.030 0.004-0.045 0.003-0.006-0-0.013-0-0.020-0-0.103 0-0.199 0.028-0.282 0.077l0.003-0.001c-0.031 0.018-0.059 0.039-0.083 0.061l0-0c-0.013 0.011-0.028 0.017-0.040 0.029l-4.699 5.147-4.329-4.258 2.834-2.819c0.096-0.097 0.156-0.23 0.156-0.377 0-0.295-0.239-0.534-0.534-0.534-0 0-0.001 0-0.001 0h0v-0.001l-2.22 0.013 0.028-1.607 3.105 0.027c1.264 1.297 3.027 2.101 4.979 2.101 0.001 0 0.002 0 0.004 0h-0c0.437 0 0.864-0.045 1.279-0.123 0.040 0.032 0.079 0.065 0.13 0.085l2.411 0.96 0.331 1.644-3.004-0.427zM20.025 18.577l-0.313-1.558 1.446-1.080 0.947 1.257-2.081 1.381zM23.78 15.745l-0.838 0.785-0.931-1.236 0.831-0.637c0.122-0.093 0.277-0.15 0.445-0.15 0.035 0 0.069 0.002 0.102 0.007l-0.004-0c0.198 0.028 0.367 0.132 0.479 0.282l0.001 0.002c0.088 0.117 0.141 0.266 0.141 0.426 0 0.205-0.087 0.391-0.226 0.521l-0 0z"></path>
<path fill="#212121" style="fill: var(--color2, #212121)" d="M13.605 18.549l-2.144-2.134c-0.097-0.096-0.23-0.155-0.377-0.155s-0.28 0.059-0.377 0.155l0-0-2.143 2.134c-0.096 0.097-0.156 0.231-0.156 0.378s0.059 0.281 0.156 0.378l-0-0 2.143 2.134c0.097 0.096 0.23 0.155 0.377 0.155s0.28-0.059 0.377-0.155l-0 0 2.144-2.134c0.097-0.097 0.156-0.23 0.156-0.378s-0.060-0.281-0.156-0.378v0zM11.086 20.308l-1.387-1.381 1.387-1.381 1.387 1.381-1.387 1.381zM17.168 5.072l-0.258 1.036c0.071 0.018 1.738 0.452 1.738 2.15h1.067c0-2.018-1.666-2.966-2.548-3.186zM19.716 9.324h-1.067v1.067h1.067v-1.067z"></path>
</symbol>
<symbol id="icon-Client-1" viewBox="0 0 59 32">
<path  d="M24.35 8.003l2.438 2.308-4.524-0.003v11.197h11.827v-4.281l2.435 2.305v-11.526h-12.175zM33.983 16.953l-6.912-6.544h6.912v6.544zM31.837 19.867h-7.703v-7.531h0.544v7.021h7.158v0.51zM25.954 22.996l-0.285 0.586-0.285-0.586h-0.239l0.415 0.781v0.455h0.216v-0.455l0.414-0.781h-0.238zM26.311 24.232l0.1-0.288h0.479l0.101 0.288h0.224l-0.468-1.236h-0.193l-0.467 1.236h0.223zM26.651 23.258l0.179 0.513h-0.358l0.179-0.513zM27.784 23.742c-0.029 0.048-0.047 0.106-0.047 0.168 0 0.097 0.042 0.184 0.109 0.243l0 0c0.073 0.065 0.172 0.097 0.294 0.097s0.228-0.033 0.316-0.099l0.070 0.082h0.239l-0.182-0.215c0.067-0.098 0.108-0.218 0.108-0.348 0-0.009-0-0.018-0.001-0.027l0 0.001h-0.179c0 0.002 0 0.005 0 0.007 0 0.080-0.019 0.156-0.053 0.223l0.001-0.003-0.239-0.282 0.084-0.061c0.059-0.043 0.102-0.086 0.128-0.129s0.039-0.091 0.039-0.143c0-0.078-0.029-0.143-0.087-0.196s-0.131-0.080-0.221-0.080c-0.1 0-0.179 0.028-0.238 0.085s-0.088 0.133-0.088 0.229c0 0.040 0.009 0.081 0.028 0.123s0.053 0.094 0.101 0.155c-0.072 0.047-0.133 0.104-0.183 0.169l-0.001 0.002zM28.342 24.015c-0.053 0.043-0.121 0.069-0.195 0.070h-0c-0.062 0-0.111-0.018-0.148-0.053s-0.055-0.082-0.055-0.139c0-0.066 0.034-0.125 0.102-0.177l0.026-0.019 0.27 0.318zM28.12 23.467c-0.058-0.072-0.087-0.132-0.087-0.179 0-0.041 0.012-0.076 0.036-0.103s0.056-0.041 0.096-0.041c0.037 0 0.068 0.012 0.093 0.035s0.037 0.050 0.037 0.082c0 0.001 0 0.003 0 0.004 0 0.046-0.020 0.088-0.053 0.116l-0 0-0.026 0.021-0.094 0.065zM30.133 24.139c0.085-0.077 0.14-0.186 0.146-0.308l0-0.001h-0.214c-0.011 0.088-0.038 0.151-0.081 0.189s-0.106 0.057-0.19 0.057c-0.092 0-0.162-0.035-0.211-0.105s-0.071-0.172-0.071-0.306v-0.11c0.001-0.132 0.027-0.232 0.076-0.3s0.122-0.103 0.216-0.103c0.080 0 0.141 0.020 0.183 0.059s0.068 0.103 0.078 0.192h0.214c-0.014-0.135-0.062-0.24-0.145-0.314s-0.193-0.111-0.329-0.111c-0.006-0-0.012-0-0.019-0-0.189 0-0.352 0.113-0.425 0.275l-0.001 0.003c-0.039 0.087-0.062 0.188-0.062 0.295 0 0.005 0 0.009 0 0.014v-0.001 0.115c0.002 0.114 0.023 0.214 0.064 0.3s0.099 0.153 0.173 0.2c0.072 0.044 0.159 0.070 0.253 0.070 0.003 0 0.006-0 0.009-0h-0c0.007 0 0.016 0.001 0.024 0.001 0.12 0 0.229-0.042 0.316-0.111l-0.001 0.001zM31.395 23.966c0.040-0.089 0.063-0.194 0.063-0.303 0-0.006-0-0.011-0-0.016v0.001-0.069c-0.001-0.121-0.022-0.226-0.065-0.317-0.076-0.168-0.243-0.282-0.435-0.282-0.004 0-0.009 0-0.013 0h0.001c-0.003-0-0.006-0-0.009-0-0.195 0-0.363 0.116-0.439 0.282l-0.001 0.003c-0.041 0.089-0.064 0.193-0.064 0.303 0 0.006 0 0.011 0 0.017v-0.001 0.070c0.001 0.118 0.022 0.223 0.065 0.313s0.104 0.161 0.182 0.21c0.074 0.046 0.163 0.073 0.259 0.073 0.003 0 0.006-0 0.009-0h-0c0.101 0 0.191-0.024 0.268-0.073s0.138-0.119 0.18-0.211zM31.165 23.267c0.050 0.080 0.079 0.177 0.079 0.281 0 0.012-0 0.024-0.001 0.036l0-0.002v0.065c0 0.139-0.026 0.245-0.077 0.318s-0.124 0.109-0.219 0.109c-0.094 0-0.168-0.037-0.221-0.111s-0.079-0.179-0.079-0.315v-0.071c0.001-0.133 0.028-0.236 0.080-0.308s0.125-0.11 0.218-0.11c0.095 0 0.168 0.037 0.22 0.11z"></path>
</symbol>
<symbol id="icon-Client-2" viewBox="0 0 59 32">
<path  d="M28.564 7.632h-0.047c-0.057-0.003-0.133-0.006-0.21-0.008l-0.009-0h-0.158c-0.006 0-0.013-0-0.020-0-0.152 0-0.302 0.004-0.452 0.012l0.021-0.001c-1.343 0.079-2.59 0.414-3.717 0.959l0.059-0.026-0.15 0.073v7.702l0.352-0.119c0.309-0.106 0.638-0.202 0.978-0.29 0.841-0.225 1.81-0.361 2.808-0.374l0.008-0v1.012c-0.132 0.001-0.261 0.005-0.39 0.012l0.020-0.001h-0.029c-0.731 0.040-1.457 0.151-2.166 0.333-0.899 0.225-1.766 0.563-2.581 1.006v-9.878c0.779-0.463 1.681-0.841 2.636-1.086l0.072-0.016c0.765-0.206 1.644-0.325 2.55-0.329h0.151c0.178 0.004 0.351 0.012 0.514 0.025 0.429 0.030 0.854 0.098 1.271 0.203v0.996c-0.354-0.086-0.775-0.152-1.206-0.184l-0.026-0.002-0.025-0.002c-0.086-0.007-0.172-0.015-0.252-0.015zM30.317 8.65c0.221 0.017 0.45 0.025 0.681 0.025 0.955-0.004 1.879-0.129 2.76-0.361l-0.076 0.017c0.98-0.25 1.839-0.595 2.637-1.036l-0.057 0.029v9.702c-0.847 0.493-1.758 0.864-2.708 1.101-0.834 0.214-1.691 0.325-2.552 0.328-0.019 0-0.041 0-0.063 0-0.665 0-1.311-0.083-1.928-0.24l0.054 0.012v-9.765c0.15 0.034 0.304 0.066 0.46 0.093 0.257 0.043 0.528 0.075 0.792 0.095zM35.255 8.726l-0.352 0.119c-0.324 0.109-0.65 0.206-0.978 0.293-0.956 0.246-1.938 0.371-2.924 0.375-0.23 0-0.441-0.006-0.645-0.019l-0.281-0.019v7.923l0.241 0.021c0.224 0.019 0.454 0.029 0.686 0.029 0.82-0.003 1.613-0.112 2.368-0.313l-0.065 0.015c0.69-0.175 1.289-0.396 1.856-0.672l-0.057 0.025 0.151-0.073v-7.705zM23.563 21.295c-0.096-0.098-0.23-0.158-0.378-0.158-0.005 0-0.010 0-0.015 0l0.001-0c-0.002-0-0.005-0-0.008-0-0.078 0-0.153 0.015-0.222 0.043l0.004-0.001c-0.133 0.055-0.236 0.159-0.288 0.29l-0.001 0.003c-0.026 0.064-0.041 0.137-0.041 0.215 0 0.001 0 0.002 0 0.004v-0 1.32c-0 0.006-0 0.013-0 0.020 0 0.091 0.019 0.177 0.054 0.255l-0.002-0.004c0.059 0.132 0.172 0.231 0.31 0.27l0.003 0.001c0.064 0.018 0.13 0.027 0.197 0.027 0.302-0.002 0.546-0.248 0.546-0.55 0-0.002 0-0.004-0-0.005v0-0.148h-0.345v0.118c0 0.002 0 0.004 0 0.007 0 0.040-0.007 0.078-0.021 0.114l0.001-0.002c-0.012 0.029-0.029 0.054-0.050 0.074l-0 0c-0.020 0.016-0.044 0.029-0.070 0.038l-0.002 0c-0.021 0.008-0.046 0.012-0.072 0.012v0c-0.031 0.004-0.062-0.001-0.090-0.014s-0.053-0.032-0.071-0.057c-0.029-0.047-0.046-0.104-0.046-0.164 0-0.004 0-0.009 0-0.013l-0 0.001v-1.23c-0-0.004-0-0.009-0-0.014 0-0.067 0.016-0.13 0.043-0.186l-0.001 0.002c0.031-0.049 0.085-0.080 0.147-0.080 0.008 0 0.016 0.001 0.023 0.002l-0.001-0c0.002-0 0.005-0 0.007-0 0.060 0 0.113 0.029 0.146 0.074l0 0c0.036 0.046 0.057 0.105 0.057 0.168 0 0.003-0 0.006-0 0.009v-0 0.114h0.341v-0.134c0-0.001 0-0.003 0-0.005 0-0.081-0.015-0.159-0.044-0.231l0.001 0.004c-0.027-0.072-0.066-0.134-0.115-0.186l0 0zM25.613 21.28c-0.105-0.089-0.241-0.142-0.39-0.142s-0.285 0.054-0.391 0.143l0.001-0.001c-0.056 0.051-0.102 0.112-0.133 0.182l-0.001 0.003c-0.032 0.071-0.050 0.155-0.050 0.242 0 0.005 0 0.010 0 0.015v-0.001 1.266c-0 0.004-0 0.009-0 0.014 0 0.088 0.018 0.173 0.052 0.249l-0.002-0.004c0.033 0.070 0.078 0.129 0.133 0.176l0.001 0.001c0.051 0.047 0.111 0.085 0.178 0.11l0.004 0.001c0.061 0.023 0.132 0.036 0.206 0.036s0.145-0.013 0.21-0.038l-0.004 0.001c0.069-0.025 0.132-0.063 0.187-0.111s0.099-0.11 0.13-0.177c0.032-0.071 0.050-0.154 0.050-0.242 0-0.006-0-0.012-0-0.018l0 0.001v-1.266c0-0.007 0-0.015 0-0.023 0-0.165-0.069-0.313-0.18-0.418l-0-0zM25.452 22.987c0.003 0.034-0.002 0.068-0.014 0.099s-0.031 0.060-0.055 0.084c-0.044 0.036-0.1 0.058-0.162 0.058s-0.118-0.022-0.162-0.059l0 0c-0.043-0.041-0.070-0.099-0.070-0.164 0-0.007 0-0.013 0.001-0.020l-0 0.001v-1.266c-0.003-0.034 0.002-0.068 0.014-0.099s0.031-0.060 0.055-0.084c0.044-0.036 0.1-0.058 0.162-0.058s0.118 0.022 0.162 0.059l-0-0c0.043 0.041 0.070 0.099 0.070 0.164 0 0.007-0 0.013-0.001 0.020l0-0.001v1.266zM28.305 23.553v-2.396h-0.332l-0.436 1.268h-0.006l-0.439-1.268h-0.328v2.396h0.342v-1.458h0.006l0.335 1.030h0.171l0.338-1.030h0.006v1.458h0.342zM30.249 21.324c-0.052-0.058-0.117-0.103-0.191-0.13l-0.003-0.001c-0.069-0.024-0.149-0.037-0.233-0.037-0.005 0-0.011 0-0.016 0h-0.508v2.396h0.341v-0.936h0.176c0.008 0 0.018 0.001 0.028 0.001 0.102 0 0.198-0.024 0.283-0.067l-0.004 0.002c0.078-0.044 0.142-0.106 0.186-0.181l0.001-0.002c0.037-0.060 0.065-0.13 0.078-0.206l0-0.003c0.013-0.090 0.020-0.181 0.018-0.272 0-0.011 0-0.024 0-0.037 0-0.108-0.012-0.213-0.035-0.314l0.002 0.009c-0.024-0.086-0.068-0.16-0.126-0.22l0 0zM30.073 22.055c-0.001 0.046-0.013 0.089-0.033 0.127l0.001-0.002c-0.020 0.037-0.050 0.066-0.087 0.084l-0.001 0c-0.042 0.019-0.090 0.031-0.142 0.031-0.007 0-0.013-0-0.020-0.001l0.001 0h-0.156v-0.815h0.176c0.005-0 0.011-0 0.016-0 0.050 0 0.097 0.011 0.14 0.031l-0.002-0.001c0.035 0.020 0.063 0.051 0.080 0.088 0.018 0.039 0.029 0.085 0.030 0.134v0.159c0 0.056 0.003 0.113 0 0.165h-0.003zM31.867 21.156h-0.28l-0.528 2.396h0.341l0.1-0.515h0.465l0.1 0.515h0.341l-0.541-2.396zM31.552 22.711l0.168-0.869h0.006l0.167 0.869h-0.341zM34.072 22.6h-0.006l-0.516-1.443h-0.328v2.396h0.341v-1.441h0.007l0.522 1.441h0.321v-2.396h-0.341v1.443zM36.16 21.156l-0.275 0.953h-0.007l-0.274-0.953h-0.362l0.469 1.383v1.013h0.342v-1.013l0.469-1.383h-0.361zM22.611 24.229h0.165v0.462h0.112v-0.462h0.164v-0.095h-0.44v0.095zM23.994 24.135l-0.216 0.556h0.119l0.046-0.126h0.222l0.047 0.126h0.121l-0.221-0.556h-0.119zM23.976 24.471l0.076-0.206 0.076 0.206h-0.151zM25.362 24.486h0.128v0.072c-0.036 0.029-0.082 0.047-0.132 0.047h-0c-0.002 0-0.005 0-0.008 0-0.044 0-0.084-0.021-0.11-0.053l-0-0c-0.026-0.037-0.041-0.083-0.041-0.132 0-0.005 0-0.009 0-0.013l-0 0.001c0-0.124 0.054-0.186 0.16-0.186 0.003-0 0.007-0.001 0.011-0.001 0.055 0 0.101 0.038 0.114 0.089l0 0.001 0.11-0.021c-0.024-0.109-0.102-0.164-0.236-0.164-0.002-0-0.005-0-0.008-0-0.072 0-0.137 0.027-0.187 0.072l0-0c-0.050 0.050-0.082 0.12-0.082 0.197 0 0.006 0 0.012 0.001 0.018l-0-0.001c-0 0.004-0 0.008-0 0.013 0 0.075 0.027 0.143 0.072 0.196l-0-0c0.048 0.050 0.116 0.082 0.191 0.082 0.007 0 0.014-0 0.020-0.001l-0.001 0c0.003 0 0.006 0 0.009 0 0.088 0 0.168-0.033 0.227-0.088l-0 0v-0.219h-0.241v0.094zM26.759 24.135h-0.113v0.556h0.39v-0.095h-0.277v-0.462zM27.94 24.135h-0.113v0.556h0.113v-0.556zM29.094 24.506l-0.228-0.372h-0.109v0.556h0.105v-0.363l0.224 0.363h0.112v-0.556h-0.103v0.372zM30.138 24.446h0.277v-0.095h-0.277v-0.122h0.298v-0.095h-0.411v0.556h0.422v-0.095h-0.31v-0.15zM32.668 24.354h-0.219v-0.219h-0.112v0.556h0.112v-0.243h0.219v0.243h0.112v-0.556h-0.112v0.219zM33.718 24.446h0.278v-0.095h-0.278v-0.122h0.299v-0.095h-0.411v0.556h0.421v-0.095h-0.31v-0.15zM35.142 24.446c0.097-0.015 0.146-0.066 0.146-0.155 0.001-0.005 0.001-0.011 0.001-0.017 0-0.044-0.022-0.082-0.055-0.105l-0-0c-0.041-0.021-0.090-0.034-0.142-0.034-0.007 0-0.015 0-0.022 0.001l0.001-0h-0.236v0.556h0.112v-0.233h0.022c0.002-0 0.005-0 0.007-0 0.023 0 0.044 0.004 0.064 0.013l-0.001-0c0.017 0.010 0.030 0.024 0.040 0.040l0 0.001 0.121 0.177h0.134l-0.068-0.109c-0.031-0.054-0.072-0.099-0.122-0.133l-0.001-0.001zM35.029 24.369h-0.082v-0.14h0.088c0.007-0.001 0.016-0.001 0.024-0.001 0.032 0 0.062 0.005 0.091 0.015l-0.002-0.001c0.008 0.007 0.015 0.016 0.019 0.026s0.006 0.021 0.006 0.032c-0 0.023-0.012 0.043-0.029 0.055l-0 0c-0.027 0.009-0.059 0.014-0.092 0.014-0.008 0-0.016-0-0.023-0.001l0.001 0zM36.216 24.446h0.277v-0.095h-0.277v-0.122h0.299v-0.095h-0.412v0.556h0.422v-0.095h-0.31v-0.15z"></path>
</symbol>
<symbol id="icon-Client-3" viewBox="0 0 59 32">
<path  d="M23.795 22.649c0.006 0 0.011 0.001 0.016 0.003l0.013 0.008 0.076 0.073c-0.059 0.058-0.13 0.105-0.209 0.137l-0.004 0.002c-0.083 0.031-0.179 0.049-0.279 0.049-0.008 0-0.016-0-0.024-0l0.001 0c-0.005 0-0.010 0-0.016 0-0.096 0-0.189-0.017-0.275-0.048l0.006 0.002c-0.161-0.055-0.287-0.175-0.351-0.327l-0.001-0.004c-0.030-0.073-0.048-0.158-0.048-0.247 0-0.004 0-0.008 0-0.012v0.001c-0-0.005-0-0.010-0-0.015 0-0.177 0.077-0.335 0.199-0.444l0.001-0c0.064-0.056 0.14-0.101 0.223-0.13l0.005-0.001c0.085-0.029 0.183-0.046 0.285-0.046 0.003 0 0.006 0 0.009 0h-0c0.006-0 0.012-0 0.019-0 0.091 0 0.177 0.015 0.258 0.044l-0.005-0.002c0.078 0.030 0.146 0.069 0.205 0.117l-0.001-0.001-0.064 0.077c-0.005 0.005-0.010 0.010-0.016 0.014l-0 0c-0.007 0.004-0.016 0.006-0.025 0.006-0.010 0-0.020-0.003-0.028-0.008l0 0-0.034-0.021-0.047-0.026c-0.020-0.010-0.042-0.018-0.064-0.026-0.059-0.020-0.126-0.031-0.196-0.031-0.077 0-0.15 0.014-0.218 0.039l0.004-0.001c-0.124 0.042-0.221 0.133-0.271 0.249l-0.001 0.003c-0.025 0.058-0.039 0.126-0.039 0.197 0 0.002 0 0.005 0 0.007v-0c-0 0.002-0 0.005-0 0.008 0 0.072 0.014 0.141 0.040 0.204l-0.001-0.004c0.025 0.060 0.061 0.111 0.105 0.154l0 0c0.043 0.042 0.096 0.075 0.154 0.095l0.003 0.001c0.056 0.021 0.121 0.033 0.189 0.033 0.002 0 0.004 0 0.006-0h-0c0.004 0 0.008 0 0.013 0 0.036 0 0.072-0.003 0.107-0.008l-0.004 0c0.096-0.010 0.182-0.049 0.251-0.107l-0.001 0.001c0.010-0.008 0.022-0.013 0.036-0.013h0zM25.987 22.285c0 0.002 0 0.005 0 0.007 0 0.090-0.019 0.176-0.053 0.253l0.002-0.004c-0.031 0.074-0.080 0.142-0.143 0.199s-0.14 0.101-0.224 0.131c-0.086 0.029-0.185 0.047-0.289 0.047s-0.202-0.017-0.295-0.048l0.006 0.002c-0.086-0.030-0.16-0.075-0.224-0.132l0.001 0.001c-0.061-0.055-0.109-0.122-0.143-0.197l-0.001-0.004c-0.032-0.076-0.051-0.164-0.051-0.257s0.019-0.181 0.053-0.261l-0.002 0.004c0.035-0.079 0.084-0.146 0.144-0.202l0-0c0.063-0.054 0.137-0.097 0.218-0.125l0.005-0.001c0.086-0.030 0.185-0.047 0.289-0.047s0.202 0.017 0.295 0.049l-0.006-0.002c0.084 0.030 0.16 0.074 0.224 0.131s0.111 0.125 0.143 0.199c0.035 0.082 0.052 0.17 0.051 0.258zM25.788 22.285c0-0.003 0-0.008 0-0.012 0-0.070-0.013-0.137-0.037-0.198l0.001 0.004c-0.046-0.119-0.141-0.21-0.259-0.25l-0.003-0.001c-0.063-0.021-0.135-0.034-0.21-0.034s-0.147 0.012-0.214 0.035l0.005-0.001c-0.062 0.022-0.115 0.055-0.16 0.097l0-0c-0.044 0.042-0.079 0.093-0.101 0.151l-0.001 0.003c-0.023 0.061-0.036 0.132-0.036 0.206s0.013 0.145 0.037 0.21l-0.001-0.004c0.045 0.119 0.14 0.211 0.259 0.249l0.003 0.001c0.063 0.021 0.135 0.033 0.21 0.033s0.147-0.012 0.214-0.034l-0.005 0.001c0.062-0.021 0.116-0.054 0.16-0.096l-0 0c0.044-0.042 0.078-0.094 0.101-0.151l0.001-0.003c0.023-0.058 0.036-0.124 0.036-0.194 0-0.004-0-0.008-0-0.012v0.001zM27.482 22.501l0.020 0.046 0.022-0.046c0.008-0.015 0.015-0.031 0.025-0.045l0.485-0.765c0.009-0.013 0.018-0.021 0.027-0.024s0.021-0.004 0.033-0.004c0.002 0 0.005 0 0.007 0h0.143v1.245h-0.17v-0.997l-0.487 0.776c-0.006 0.012-0.016 0.021-0.029 0.028s-0.027 0.010-0.042 0.010h-0.027c-0.015 0-0.029-0.003-0.042-0.010s-0.022-0.017-0.028-0.028l-0.502-0.781v0.999h-0.164v-1.242h0.143c0.002-0 0.004-0 0.007-0 0.012 0 0.023 0.002 0.034 0.004l-0.001-0c0.011 0.005 0.021 0.013 0.027 0.024l0 0 0.495 0.766c0.010 0.014 0.018 0.029 0.025 0.044zM29.305 22.439v0.466h-0.19v-1.243h0.423c0.004-0 0.008-0 0.013-0 0.079 0 0.156 0.010 0.23 0.028l-0.006-0.001c0.064 0.016 0.119 0.043 0.168 0.078l-0.001-0.001c0.041 0.032 0.073 0.073 0.094 0.12l0.001 0.002c0.020 0.045 0.032 0.098 0.032 0.153 0 0.002 0 0.004-0 0.006v-0c0 0.001 0 0.003 0 0.005 0 0.113-0.053 0.213-0.136 0.278l-0.001 0.001c-0.048 0.037-0.104 0.065-0.165 0.081l-0.003 0.001c-0.064 0.018-0.138 0.029-0.214 0.029-0.005 0-0.011-0-0.016-0h0.001l-0.23-0.003zM29.305 22.305h0.23c0.002 0 0.005 0 0.008 0 0.050 0 0.098-0.007 0.143-0.020l-0.004 0.001c0.041-0.012 0.076-0.030 0.107-0.055l-0.001 0c0.053-0.044 0.087-0.111 0.087-0.185 0-0.001 0-0.001 0-0.002v0c0.002-0.035-0.004-0.069-0.019-0.101s-0.037-0.061-0.066-0.085c-0.063-0.043-0.142-0.068-0.226-0.068-0.010 0-0.021 0-0.031 0.001l0.001-0h-0.23v0.512zM31.854 22.907h-0.15c-0 0-0.001 0-0.001 0-0.015 0-0.029-0.004-0.041-0.012l0 0c-0.010-0.008-0.019-0.017-0.025-0.029l-0-0-0.129-0.301h-0.648l-0.134 0.301c-0.011 0.024-0.035 0.040-0.063 0.040-0.001 0-0.003-0-0.004-0h-0.15l0.569-1.245h0.197l0.577 1.245zM30.916 22.444h0.535l-0.226-0.507c-0.015-0.031-0.029-0.070-0.041-0.11l-0.002-0.007-0.022 0.065c-0.008 0.022-0.015 0.040-0.023 0.057l0.002-0.004-0.224 0.506zM32.674 21.666c0.011 0.005 0.021 0.013 0.028 0.022l0 0 0.83 0.939v-0.967h0.17v1.245h-0.095c-0.014 0-0.027-0.002-0.039-0.007s-0.022-0.014-0.030-0.023l-0.829-0.938v0.968h-0.17v-1.245h0.101c0.012 0 0.023 0.002 0.034 0.006zM35.1 22.412v0.494h-0.19v-0.494l-0.525-0.75h0.17c0.001-0 0.003-0 0.005-0 0.014 0 0.026 0.004 0.037 0.011l-0-0c0.010 0.008 0.019 0.017 0.026 0.028l0.328 0.484c0.013 0.021 0.025 0.040 0.034 0.058s0.017 0.035 0.024 0.053l0.024-0.054c0.010-0.022 0.021-0.041 0.033-0.058l-0.001 0.001 0.323-0.487c0.007-0.010 0.015-0.019 0.025-0.026l0-0c0.010-0.008 0.022-0.012 0.036-0.012 0.002 0 0.004 0 0.005 0l-0-0h0.171l-0.525 0.753zM27.388 19.571c0.082 0.009 0.166 0.017 0.25 0.023 1.28-0.497 2.362-1.311 3.112-2.34s1.134-2.227 1.105-3.445l-1.41-1.225c0.287 1.296 0.153 2.637-0.387 3.871s-1.464 2.313-2.67 3.117z"></path>
<path  d="M26.884 19.514l0.038 0.007c1.288-0.801 2.271-1.919 2.82-3.209s0.64-2.695 0.261-4.031l-2.009-1.745c0.812 1.434 1.139 3.040 0.943 4.629s-0.908 3.098-2.053 4.35zM33.696 15.248c-0.341 1.338-1.17 2.545-2.363 3.441-0.326 0.248-0.694 0.481-1.081 0.68l-0.042 0.020c0.972-0.248 1.865-0.687 2.61-1.282s1.324-1.332 1.69-2.152l-0.815-0.707z"></path>
<path  d="M33.377 15.051l-1.16-1.008c-0.022 1.149-0.398 2.272-1.089 3.252s-1.671 1.781-2.838 2.321h0.006c0.26 0 0.52-0.014 0.779-0.040 1.091-0.387 2.055-1.003 2.806-1.792s1.265-1.728 1.497-2.732zM27.052 9.798l-1.384-1.204c-1.237 0.415-2.301 1.145-3.052 2.095s-1.156 2.074-1.159 3.226c0.005 1.273 0.498 2.508 1.401 3.511s2.166 1.714 3.588 2.022c1.269-1.343 2.012-3.003 2.121-4.739s-0.422-3.456-1.515-4.912zM36.574 14.866c-0.005-1.51-0.698-2.958-1.927-4.026s-2.895-1.67-4.633-1.674c-0.005 0-0.010-0-0.016-0-0.835 0-1.637 0.139-2.385 0.395l0.052-0.015 8.472 7.361c0.29-0.651 0.439-1.342 0.438-2.040z"></path>
</symbol>
<symbol id="icon-Client-4" viewBox="0 0 59 32">
<path  d="M19.531 12.909h-0.001c-0.834 0-1.51 0.601-1.51 1.342v0.001c0 0.741 0.676 1.342 1.51 1.342h0.001c0.834 0 1.51-0.601 1.51-1.342v-0.001c0-0.741-0.676-1.342-1.51-1.342zM30.68 12.48c-0.002-1.030-0.464-2.016-1.283-2.744s-1.929-1.138-3.088-1.141c-1.159 0.002-2.27 0.412-3.089 1.14s-1.281 1.715-1.283 2.745v5.679s8.743-0.865 8.744-5.678v-0.001zM14.959 20.021c0.002 0.716 0.323 1.403 0.893 1.91s1.342 0.792 2.148 0.794c0.806-0.002 1.578-0.288 2.148-0.794s0.891-1.193 0.893-1.909v-3.951s-6.084 0.603-6.084 3.95zM18 20.729c-0.158 0-0.311-0.041-0.442-0.119s-0.233-0.188-0.293-0.318c-0.060-0.129-0.076-0.272-0.045-0.409s0.107-0.263 0.218-0.362c0.111-0.099 0.253-0.166 0.408-0.194s0.315-0.013 0.46 0.040c0.146 0.054 0.27 0.144 0.357 0.261s0.134 0.253 0.134 0.393c0 0.093-0.020 0.186-0.060 0.272s-0.098 0.165-0.172 0.23c-0.074 0.066-0.162 0.118-0.259 0.154s-0.201 0.054-0.305 0.054v-0.003zM24.147 20.339h-0.587v0.606h-0.306v-1.484h0.966v0.248h-0.66v0.383h0.587v0.247zM25.618 20.237c0 0.146-0.026 0.274-0.077 0.384-0.093 0.205-0.296 0.345-0.532 0.345-0.007 0-0.014-0-0.021-0l0.001 0c-0.005 0-0.012 0-0.018 0-0.236 0-0.439-0.139-0.533-0.339l-0.002-0.004c-0.051-0.108-0.081-0.235-0.081-0.368 0-0.004 0-0.008 0-0.012v0.001-0.073c0-0.146 0.026-0.274 0.078-0.385 0.093-0.206 0.297-0.346 0.533-0.346 0.007 0 0.014 0 0.021 0l-0.001-0c0.123 0 0.233 0.030 0.329 0.090s0.171 0.144 0.223 0.256 0.079 0.239 0.079 0.384v0.066zM25.308 20.17c0-0.156-0.028-0.274-0.084-0.355s-0.135-0.121-0.238-0.121c-0.103 0-0.182 0.040-0.237 0.12s-0.084 0.196-0.085 0.351v0.072c0 0.151 0.028 0.269 0.084 0.353s0.136 0.125 0.241 0.125c0.103 0 0.181-0.040 0.236-0.12s0.083-0.198 0.084-0.353v-0.072zM26.609 20.556c0-0.058-0.020-0.102-0.061-0.133s-0.114-0.064-0.22-0.098c-0.098-0.031-0.182-0.066-0.261-0.106l0.009 0.004c-0.168-0.091-0.253-0.214-0.253-0.368 0-0.080 0.022-0.151 0.067-0.214s0.11-0.112 0.195-0.148c0.085-0.035 0.18-0.053 0.285-0.053s0.2 0.019 0.283 0.058c0.083 0.038 0.147 0.092 0.193 0.162s0.069 0.149 0.069 0.238h-0.306c0-0.068-0.021-0.121-0.064-0.158s-0.103-0.057-0.18-0.057c-0.075 0-0.133 0.016-0.174 0.048s-0.062 0.073-0.062 0.124c0 0.048 0.024 0.089 0.072 0.121s0.121 0.063 0.215 0.092c0.174 0.052 0.301 0.117 0.38 0.195s0.119 0.174 0.119 0.289c0 0.128-0.049 0.229-0.146 0.303s-0.228 0.109-0.392 0.109c-0.114 0-0.218-0.021-0.312-0.062s-0.165-0.099-0.215-0.172c-0.046-0.069-0.073-0.153-0.073-0.244 0-0.003 0-0.007 0-0.010v0h0.307c0 0.164 0.098 0.246 0.293 0.246 0.073 0 0.129-0.015 0.17-0.044s0.061-0.071 0.061-0.124zM28.241 19.709h-0.454v1.236h-0.306v-1.236h-0.448v-0.248h1.209v0.248zM29.309 20.303h-0.587v0.397h0.689v0.246h-0.995v-1.484h0.993v0.248h-0.687v0.354h0.587v0.239zM30.139 20.402h-0.244v0.543h-0.306v-1.484h0.551c0.175 0 0.31 0.039 0.406 0.117s0.143 0.189 0.143 0.331c0 0.101-0.022 0.186-0.066 0.254s-0.11 0.121-0.199 0.161l0.321 0.606v0.014h-0.328l-0.278-0.543zM29.896 20.155h0.247c0.077 0 0.136-0.019 0.178-0.058s0.063-0.093 0.063-0.162c0-0.070-0.020-0.125-0.060-0.165s-0.1-0.060-0.182-0.060h-0.246v0.445zM31.748 20.423v0.523h-0.306v-1.484h0.579c0.111 0 0.209 0.020 0.294 0.061 0.157 0.074 0.264 0.232 0.264 0.414 0 0.006-0 0.011-0 0.017l0-0.001c0 0.145-0.050 0.26-0.15 0.344s-0.237 0.125-0.413 0.125h-0.268zM31.748 20.175h0.273c0.081 0 0.142-0.019 0.184-0.057s0.064-0.092 0.064-0.163c0-0.073-0.021-0.131-0.064-0.176s-0.102-0.068-0.177-0.069h-0.28v0.466zM33.682 20.303h-0.587v0.397h0.689v0.246h-0.995v-1.484h0.993v0.248h-0.687v0.354h0.587v0.239zM35.102 19.709h-0.455v1.236h-0.306v-1.236h-0.448v-0.248h1.209v0.248zM36.17 20.303h-0.587v0.397h0.689v0.246h-0.994v-1.484h0.992v0.248h-0.687v0.354h0.587v0.239zM37 20.402h-0.243v0.543h-0.306v-1.484h0.551c0.175 0 0.31 0.039 0.406 0.117s0.143 0.189 0.143 0.331c0 0.101-0.022 0.186-0.066 0.254s-0.11 0.121-0.199 0.161l0.321 0.606v0.014h-0.328l-0.278-0.543zM36.757 20.155h0.247c0.077 0 0.136-0.019 0.178-0.058s0.063-0.093 0.063-0.162c0-0.070-0.020-0.125-0.060-0.165s-0.1-0.060-0.182-0.060h-0.246v0.445zM38.553 20.556c0-0.058-0.021-0.102-0.061-0.133s-0.114-0.064-0.22-0.098c-0.098-0.031-0.181-0.065-0.26-0.106l0.009 0.004c-0.169-0.091-0.253-0.214-0.253-0.368 0-0.080 0.022-0.151 0.067-0.214s0.111-0.112 0.195-0.148c0.082-0.034 0.176-0.053 0.276-0.053 0.003 0 0.007 0 0.010 0h-0.001c0.106 0 0.2 0.019 0.283 0.058s0.147 0.092 0.192 0.162c0.046 0.070 0.070 0.149 0.070 0.238h-0.306c0-0.068-0.022-0.121-0.064-0.158s-0.103-0.057-0.18-0.057c-0.075 0-0.133 0.016-0.174 0.048s-0.062 0.073-0.062 0.124c0 0.048 0.024 0.089 0.072 0.121s0.121 0.063 0.215 0.092c0.174 0.052 0.301 0.117 0.38 0.195s0.119 0.174 0.119 0.289c0 0.128-0.049 0.229-0.146 0.303s-0.228 0.109-0.392 0.109c-0.114 0-0.218-0.021-0.312-0.062s-0.165-0.099-0.215-0.172c-0.046-0.069-0.073-0.153-0.073-0.244 0-0.003 0-0.007 0-0.010v0h0.307c0 0.164 0.098 0.246 0.294 0.246 0.073 0 0.129-0.015 0.17-0.044s0.061-0.071 0.061-0.124z"></path>
</symbol>
<symbol id="icon-Client-5" viewBox="0 0 59 32">
<path d="M20.439 21.129c0.085 0.096 0.13 0.216 0.128 0.34 0.004 0.081-0.011 0.161-0.045 0.235s-0.086 0.141-0.152 0.194c-0.145 0.099-0.324 0.159-0.517 0.159-0.020 0-0.041-0.001-0.061-0.002l0.003 0h-1.010v-2.154h0.989c0.017-0.001 0.037-0.002 0.057-0.002 0.182 0 0.352 0.054 0.494 0.147l-0.003-0.002c0.064 0.049 0.114 0.111 0.148 0.181s0.048 0.146 0.044 0.222c0 0.006 0 0.014 0 0.021 0 0.118-0.044 0.226-0.116 0.308l0-0.001c-0.077 0.085-0.181 0.145-0.298 0.167l-0.003 0.001c0.136 0.022 0.254 0.089 0.341 0.184l0 0zM19.255 20.804h0.423c0.009 0.001 0.019 0.001 0.029 0.001 0.089 0 0.172-0.027 0.241-0.074l-0.002 0.001c0.056-0.046 0.092-0.116 0.092-0.194 0-0.006-0-0.012-0.001-0.018l0 0.001c0.003-0.039-0.003-0.078-0.019-0.114s-0.040-0.069-0.071-0.096c-0.069-0.047-0.153-0.074-0.245-0.074-0.011 0-0.023 0-0.034 0.001l0.002-0h-0.416v0.565zM19.988 21.63c0.034-0.027 0.061-0.061 0.078-0.099s0.025-0.079 0.022-0.12c0.003-0.042-0.005-0.083-0.023-0.121s-0.045-0.072-0.079-0.1c-0.073-0.049-0.162-0.079-0.259-0.079-0.010 0-0.020 0-0.029 0.001l0.001-0h-0.444v0.592h0.449c0.008 0 0.017 0.001 0.026 0.001 0.096 0 0.185-0.028 0.26-0.077l-0.002 0.001zM22.461 22.055l-0.55-0.842h-0.207v0.842h-0.473v-2.154h0.896c0.019-0.001 0.041-0.002 0.063-0.002 0.211 0 0.406 0.070 0.563 0.187l-0.002-0.002c0.125 0.117 0.201 0.271 0.213 0.434s-0.040 0.325-0.146 0.457c-0.111 0.114-0.258 0.193-0.423 0.218l-0.004 0.001 0.586 0.861h-0.515zM21.704 20.92h0.387c0.269 0 0.403-0.109 0.403-0.326 0-0.005 0-0.011 0-0.017 0-0.089-0.038-0.169-0.099-0.225l-0-0c-0.073-0.055-0.166-0.089-0.266-0.089-0.014 0-0.027 0.001-0.041 0.002l0.002-0h-0.392l0.005 0.655zM25.049 21.622h-0.943l-0.167 0.433h-0.496l0.866-2.129h0.537l0.863 2.129h-0.496l-0.163-0.433zM24.923 21.295l-0.345-0.909-0.345 0.909h0.689zM28.289 22.055h-0.47l-1.054-1.464v1.464h-0.469v-2.154h0.469l1.054 1.473v-1.473h0.47v2.154zM30.971 21.54c-0.102 0.166-0.247 0.296-0.419 0.378l-0.006 0.003c-0.183 0.086-0.398 0.136-0.624 0.136-0.013 0-0.026-0-0.039-0l0.002 0h-0.837v-2.154h0.837c0.229-0.005 0.455 0.040 0.661 0.133 0.18 0.083 0.328 0.214 0.425 0.376 0.092 0.163 0.146 0.358 0.146 0.565s-0.054 0.402-0.149 0.571l0.003-0.006zM30.433 21.488c0.134-0.143 0.208-0.325 0.208-0.514s-0.074-0.371-0.208-0.514c-0.146-0.115-0.332-0.185-0.534-0.185-0.019 0-0.038 0.001-0.056 0.002l0.003-0h-0.326v1.394h0.326c0.016 0.001 0.035 0.002 0.054 0.002 0.202 0 0.389-0.070 0.536-0.186l-0.002 0.001zM25.344 7.922s6.067 2.097 5.938 5.132v5.133s-6.062-2.098-5.936-5.133l-0.002-5.131zM36.686 16.984c1.099-0.698 2.411-1.164 3.819-1.297l0.035-0.003v-1.607c-1.594 0.562-2.946 1.582-3.854 2.907z"></path>
<path d="M35.998 17.468c0.937-1.729 2.563-3.063 4.542-3.727v-4.629s-8.639 2.987-8.457 7.309v7.307s0.385-0.134 0.99-0.384c0-0.234 0-0.469 0.028-0.706 0.179-2.006 1.22-3.865 2.896-5.169z"></path>
<path d="M35.175 20.182c0.050-0.552 0.157-1.060 0.316-1.545l-0.014 0.049c-1.043 1.125-1.675 2.522-1.806 3.993-0.012 0.122-0.020 0.268-0.023 0.415l-0 0.006c0.719-0.314 1.264-0.583 1.799-0.869l-0.137 0.067c-0.103-0.448-0.162-0.963-0.162-1.491 0-0.22 0.010-0.438 0.030-0.652l-0.002 0.027zM35.519 20.209c-0.017 0.177-0.026 0.384-0.026 0.592 0 0.469 0.049 0.926 0.141 1.367l-0.008-0.043c2.36-1.293 5.013-3.291 4.91-5.706v-0.21c-1.686 0.173-3.264 0.848-4.49 1.921-0.27 0.608-0.457 1.313-0.524 2.053l-0.002 0.026z"></path>
</symbol>
<symbol id="icon-Client-6" viewBox="0 0 59 32">
<path d="M29.716 15.102c-0.132-0.171-0.212-0.388-0.212-0.624 0-0.024 0.001-0.048 0.002-0.071l-0 0.003v-1.003c0-0.307 0.070-0.541 0.209-0.701s0.379-0.239 0.718-0.239c0.319 0 0.546 0.068 0.679 0.204 0.126 0.145 0.203 0.336 0.203 0.545 0 0.019-0.001 0.039-0.002 0.058l0-0.003v0.236h-0.571v-0.239c0-0.010 0-0.022 0-0.034 0-0.071-0.006-0.14-0.019-0.207l0.001 0.007c-0.010-0.057-0.039-0.105-0.082-0.139l-0-0c-0.051-0.034-0.114-0.055-0.182-0.055-0.009 0-0.017 0-0.026 0.001l0.001-0c-0.008-0.001-0.016-0.001-0.025-0.001-0.071 0-0.138 0.022-0.193 0.059l0.001-0.001c-0.047 0.038-0.081 0.091-0.095 0.151l-0 0.002c-0.014 0.068-0.022 0.145-0.022 0.225 0 0.008 0 0.016 0 0.024l-0-0.001v1.217c-0.001 0.014-0.002 0.030-0.002 0.046 0 0.108 0.028 0.21 0.076 0.299l-0.002-0.003c0.028 0.036 0.068 0.065 0.114 0.083s0.097 0.025 0.147 0.019c0.007 0.001 0.015 0.001 0.023 0.001 0.067 0 0.129-0.021 0.18-0.057l-0.001 0.001c0.044-0.037 0.075-0.088 0.085-0.147l0-0.001c0.013-0.081 0.019-0.162 0.018-0.244v-0.247h0.571v0.225c0.001 0.018 0.002 0.039 0.002 0.060 0 0.216-0.075 0.415-0.2 0.572l0.001-0.002c-0.131 0.149-0.355 0.223-0.683 0.223s-0.577-0.080-0.717-0.245zM32.092 15.113c-0.144-0.156-0.216-0.384-0.216-0.685v-1.055c0-0.298 0.072-0.523 0.216-0.676s0.385-0.229 0.723-0.229c0.336 0 0.575 0.076 0.72 0.229s0.217 0.379 0.217 0.676v1.055c0 0.298-0.073 0.526-0.22 0.684s-0.385 0.236-0.717 0.236c-0.332 0-0.578-0.080-0.723-0.235zM33.081 14.86c0.044-0.081 0.070-0.177 0.070-0.279 0-0.012-0-0.023-0.001-0.034l0 0.002v-1.292c0.001-0.010 0.001-0.022 0.001-0.034 0-0.1-0.025-0.193-0.069-0.275l0.002 0.003c-0.029-0.037-0.069-0.066-0.117-0.084s-0.099-0.024-0.151-0.018c-0.051-0.006-0.103 0-0.151 0.018s-0.088 0.047-0.117 0.084c-0.044 0.079-0.070 0.173-0.070 0.273 0 0.011 0 0.023 0.001 0.034l-0-0.002v1.298c-0.001 0.011-0.001 0.024-0.001 0.037 0 0.101 0.026 0.195 0.072 0.278l-0.002-0.003c0.033 0.033 0.074 0.059 0.12 0.077 0.043 0.017 0.092 0.027 0.144 0.027 0.104 0 0.199-0.039 0.27-0.104l-0 0v-0.006zM34.439 12.499h0.614l0.462 1.946 0.473-1.946h0.598l0.061 2.809h-0.442l-0.047-1.952-0.456 1.952h-0.354l-0.473-1.96-0.044 1.96h-0.447l0.056-2.809zM37.336 12.499h0.957c0.551 0 0.827 0.266 0.827 0.798 0 0.509-0.29 0.764-0.871 0.763h-0.326v1.249h-0.591l0.003-2.809zM38.154 13.7c0.014 0.002 0.031 0.003 0.048 0.003 0.104 0 0.2-0.034 0.278-0.092l-0.001 0.001c0.055-0.074 0.088-0.167 0.088-0.267 0-0.018-0.001-0.035-0.003-0.052l0 0.002c0-0.009 0-0.019 0-0.029 0-0.080-0.011-0.158-0.031-0.232l0.001 0.006c-0.008-0.028-0.023-0.054-0.043-0.077s-0.046-0.042-0.074-0.057c-0.069-0.029-0.149-0.046-0.234-0.046-0.011 0-0.021 0-0.032 0.001l0.001-0h-0.229v0.839h0.229zM39.972 12.499h0.635l0.651 2.809h-0.551l-0.129-0.648h-0.566l-0.133 0.648h-0.559l0.651-2.809zM40.515 14.335l-0.221-1.179-0.221 1.179h0.442zM41.784 12.499h0.414l0.792 1.603v-1.603h0.49v2.809h-0.393l-0.797-1.673v1.673h-0.507l0.001-2.809zM44.628 14.237l-0.658-1.734h0.554l0.402 1.114 0.377-1.114h0.543l-0.65 1.734v1.071h-0.567v-1.071zM30.628 16.537v0.147h-0.482v1.142h-0.202v-1.142h-0.484v-0.147h1.169zM32.14 17.825h-0.156c-0.002 0-0.003 0-0.005 0-0.015 0-0.028-0.005-0.039-0.012l0 0c-0.012-0.007-0.021-0.017-0.026-0.030l-0-0-0.139-0.306h-0.669l-0.139 0.306c-0.004 0.014-0.012 0.026-0.021 0.035v0c-0.011 0.008-0.024 0.012-0.039 0.012-0.002 0-0.004-0-0.006-0l0 0h-0.156l0.591-1.288h0.206l0.598 1.283zM31.161 17.347h0.558l-0.236-0.524c-0.014-0.032-0.029-0.072-0.042-0.113l-0.002-0.008-0.022 0.068-0.021 0.054-0.234 0.523zM33.158 17.699c0.015 0.001 0.032 0.002 0.050 0.002 0.116 0 0.227-0.026 0.325-0.074l-0.005 0.002v-0.29h-0.236c-0.006 0-0.012 0-0.017-0.002s-0.011-0.004-0.015-0.008c-0.004-0.003-0.007-0.006-0.009-0.011s-0.003-0.008-0.003-0.013v-0.099h0.458v0.494c-0.072 0.046-0.155 0.082-0.243 0.104l-0.006 0.001c-0.087 0.022-0.187 0.035-0.29 0.035-0.011 0-0.021-0-0.032-0l0.002 0c-0.003 0-0.007 0-0.011 0-0.103 0-0.202-0.018-0.293-0.050l0.006 0.002c-0.091-0.032-0.169-0.078-0.237-0.136l0.001 0.001c-0.127-0.112-0.206-0.275-0.206-0.457 0-0.005 0-0.010 0-0.015v0.001c-0-0.006-0-0.014-0-0.021 0-0.18 0.079-0.341 0.205-0.451l0.001-0.001c0.067-0.057 0.145-0.103 0.231-0.132l0.005-0.002c0.091-0.030 0.196-0.048 0.306-0.048 0.004 0 0.008 0 0.012 0h-0.001c0.055 0 0.11 0.004 0.164 0.011 0.097 0.015 0.184 0.045 0.264 0.086l-0.005-0.002c0.040 0.023 0.073 0.045 0.105 0.069l-0.002-0.002-0.057 0.080c-0.010 0.015-0.027 0.025-0.046 0.025v0c-0.014-0-0.026-0.004-0.037-0.010l0 0c-0.023-0.010-0.042-0.021-0.060-0.032l0.002 0.001c-0.054-0.031-0.118-0.053-0.185-0.064l-0.003-0c-0.041-0.007-0.087-0.011-0.135-0.011-0.087 0-0.17 0.013-0.249 0.037l0.006-0.002c-0.13 0.042-0.232 0.137-0.283 0.259l-0.001 0.003c-0.025 0.064-0.040 0.138-0.040 0.215s0.015 0.151 0.041 0.219l-0.001-0.004c0.058 0.124 0.161 0.218 0.288 0.263l0.004 0.001c0.057 0.017 0.123 0.027 0.191 0.027 0.015 0 0.030-0 0.045-0.001l-0.002 0zM35.042 17.678h0.645v0.147h-0.842v-1.288h0.202l-0.005 1.142zM36.359 17.825h-0.202v-1.288h0.202v1.288zM37.11 16.543c0.012 0.006 0.022 0.014 0.031 0.023l0 0 0.864 0.971c-0-0.007-0.001-0.015-0.001-0.023s0-0.016 0.001-0.024l-0 0.001v-0.96h0.176v1.294h-0.102c-0.002 0-0.005 0-0.008 0-0.013 0-0.026-0.003-0.037-0.008l0.001 0c-0.012-0.007-0.023-0.015-0.032-0.024l-0-0-0.863-0.97v1.002h-0.169v-1.289h0.105c0.011 0 0.023 0.002 0.033 0.006zM39.669 16.537v0.142h-0.716v0.425h0.58v0.137h-0.58v0.44h0.716v0.142h-0.924v-1.285h0.924zM18.493 8.579l8.973 2.199v7.708l-8.973-2.198v-7.709zM17.918 7.922v8.74l10.123 2.482v-8.739l-10.123-2.483z"></path>
<path d="M23.342 23.202l-10.124-2.484v-8.74l10.124 2.483v8.741z"></path>
<path d="M18.085 8.48l8.856 2.172-3.766 3.252-8.857-2.173 3.767-3.251zM17.918 7.922l-4.698 4.056 10.124 2.483 4.697-4.056-10.123-2.483zM23.912 22.711l4.127-3.564-4.127-1.013v4.577z"></path>
</symbol>
<symbol id="icon-clock" viewBox="0 0 32 32">
<path fill="#212121" style="fill: var(--color2, #212121)" d="M31.305 15.305c-0.002-8.454-6.857-15.307-15.312-15.305s-15.307 6.857-15.305 15.312c0.001 6.79 4.423 12.546 10.543 14.549l0.108 0.031c0.057 0.018 0.123 0.028 0.191 0.028 0.125 0 0.242-0.035 0.341-0.095l-0.003 0.002c0.134-0.080 0.234-0.204 0.282-0.352l0.001-0.005 3.866-12.253c1.051-0.006 1.901-0.86 1.901-1.912 0-1.056-0.856-1.912-1.912-1.912-0.301 0-0.587 0.070-0.84 0.194l0.011-0.005-5.107-5.108c-0.115-0.115-0.275-0.187-0.451-0.187-0.352 0-0.638 0.286-0.638 0.638 0 0.176 0.071 0.336 0.187 0.451v0l5.104 5.11c-0.121 0.241-0.192 0.525-0.192 0.826 0 0.602 0.283 1.137 0.723 1.481l0.004 0.003-3.684 11.676c-7.28-2.682-11.007-10.757-8.325-18.036s10.757-11.007 18.036-8.325 11.007 10.757 8.325 18.036c-1.345 3.582-4.004 6.407-7.376 7.939l-0.088 0.036-0.398-1.874c-0.063-0.291-0.319-0.505-0.624-0.505-0.163 0-0.312 0.061-0.425 0.162l0.001-0.001-3.838 3.427c-0.132 0.117-0.214 0.287-0.214 0.477 0 0.283 0.185 0.524 0.441 0.606l0.005 0.001 4.9 1.563c0.058 0.019 0.125 0.031 0.195 0.031 0.352 0 0.638-0.286 0.638-0.638 0-0.047-0.005-0.093-0.015-0.137l0.001 0.004-0.391-1.839c5.529-2.375 9.331-7.774 9.331-14.060 0-0.011 0-0.023-0-0.034v0.002zM15.996 14.668c0.353 0 0.639 0.286 0.639 0.639s-0.286 0.639-0.639 0.639v0c-0.353 0-0.639-0.286-0.639-0.639s0.286-0.639 0.639-0.639v0zM18.097 29.535l2.185-1.948 0.603 2.841-2.788-0.892z"></path>
<path fill="#2196f3" style="fill: var(--color3, #2196f3)" d="M15.358 3.186v1.275c0 0.352 0.286 0.638 0.638 0.638s0.638-0.286 0.638-0.638v-1.275c0-0.352-0.286-0.638-0.638-0.638s-0.638 0.286-0.638 0.638v0zM3.877 14.668c-0.352 0-0.638 0.286-0.638 0.638s0.286 0.638 0.638 0.638h1.275c0.352 0 0.638-0.286 0.638-0.638s-0.286-0.638-0.638-0.638h-1.275zM28.115 15.943c0.352 0 0.638-0.286 0.638-0.638s-0.286-0.638-0.638-0.638h-1.275c-0.352 0-0.638 0.286-0.638 0.638s0.286 0.638 0.638 0.638h1.275z"></path>
</symbol>
<symbol id="icon-diagram" viewBox="0 0 32 32">
<path fill="#2196f3" style="fill: var(--color3, #2196f3)" d="M14.93 14.969h1.066v4.799h-1.066v-4.798zM19.195 17.101h1.066v2.666h-1.066v-2.666zM10.664 18.701h1.066v1.066h-1.066v-1.066zM7.465 18.167h1.066v1.599h-1.066v-1.599z"></path>
<path fill="#212121" style="fill: var(--color2, #212121)" d="M1.599 28.298h25.593c0.883-0.001 1.599-0.716 1.599-1.599v-2.133c-0.001-0.883-0.716-1.599-1.599-1.599h-0.533v-13.296l3.029-2.869c0.208 0.105 0.453 0.166 0.712 0.166 0.888 0 1.608-0.72 1.608-1.608s-0.72-1.608-1.608-1.608c-0.888 0-1.608 0.72-1.608 1.608 0 0.247 0.055 0.48 0.155 0.689l-0.004-0.010-2.282 2.164v-1.23c-0.001-0.883-0.716-1.599-1.599-1.599h-21.327c-0.883 0.001-1.599 0.716-1.599 1.599v15.996h-0.533c-0.883 0.001-1.599 0.716-1.599 1.599v2.133c0.001 0.883 0.716 1.599 1.599 1.599h0zM30.391 4.838c0.295 0 0.534 0.239 0.534 0.534s-0.239 0.534-0.534 0.534v0c-0.295 0-0.534-0.239-0.534-0.534s0.239-0.534 0.534-0.534v0zM3.199 6.971c0-0.294 0.239-0.533 0.533-0.533h21.327c0.294 0 0.533 0.239 0.533 0.533v2.24l-1.066 1.013v-2.187c0-0.294-0.239-0.533-0.533-0.533v0h-19.195c-0.294 0-0.533 0.239-0.533 0.533v0 13.329c0 0.294 0.239 0.533 0.533 0.533h19.195c0.294 0 0.533-0.239 0.533-0.533v0-9.676l1.066-1.010v12.287h-22.393v-15.996zM7.998 13.902c-0 0-0.001 0-0.002 0-0.883 0-1.598 0.716-1.598 1.598s0.716 1.598 1.598 1.598c0.431 0 0.822-0.17 1.109-0.448l-0.001 0 1.853 0.93c0.069 0.035 0.151 0.056 0.238 0.056 0.158 0 0.3-0.069 0.398-0.179l0-0.001 3.94-4.432 3.873 2.902c0.088 0.067 0.199 0.107 0.32 0.107 0.142 0 0.271-0.055 0.366-0.146l-0 0 3.366-3.189v8.133h-18.128v-12.263h18.128v2.661l-3.772 3.573-3.905-2.928c-0.088-0.067-0.199-0.107-0.32-0.107-0.158 0-0.3 0.069-0.398 0.178l-0 0.001-3.994 4.494-1.493-0.746c0.011-0.064 0.018-0.129 0.020-0.193-0.001-0.883-0.716-1.599-1.599-1.599h-0zM8.531 15.502c0 0.295-0.239 0.534-0.534 0.534s-0.534-0.239-0.534-0.534v0c0-0.295 0.239-0.534 0.534-0.534s0.534 0.239 0.534 0.534v0zM11.73 24.033h5.332v0.533c0 0.294-0.239 0.533-0.533 0.533v0h-4.265c-0.294 0-0.533-0.239-0.533-0.533v0-0.533zM1.066 24.566c0-0.294 0.239-0.533 0.533-0.533h9.064v0.533c0.001 0.883 0.716 1.599 1.599 1.599h4.265c0.883-0.001 1.599-0.716 1.599-1.599v-0.533h9.064c0.294 0 0.533 0.239 0.533 0.533v2.133c0 0.294-0.239 0.533-0.533 0.533v0h-25.593c-0.294 0-0.533-0.239-0.533-0.533v0-2.133z"></path>
</symbol>
<symbol id="icon-envelope" viewBox="0 0 43 32">
      <path
        d="M38.667 0H4C1.794 0 0 1.794 0 4v24c0 2.206 1.794 4 4 4h34.667c2.206 0 4-1.794 4-4V4c0-2.206-1.794-4-4-4zm0 2.667c.181 0 .353.038.511.103L21.334 18.236 3.49 2.77a1.32 1.32 0 0 1 .511-.103h34.667zm0 26.666H4A1.334 1.334 0 0 1 2.667 28V5.587L20.46 21.008a1.335 1.335 0 0 0 1.748 0L40.001 5.587V28c0 .736-.598 1.333-1.333 1.333z" />
    </symbol>
<symbol id="icon-smartphone" viewBox="0 0 20 32">
      <path
        d="M17 0H3C1.346 0 0 1.346 0 3v26c0 1.654 1.346 3 3 3h14c1.654 0 3-1.346 3-3V3c0-1.654-1.346-3-3-3zM3 2h14a1 1 0 0 1 1 1v21H2V3a1 1 0 0 1 1-1zm14 28H3a1 1 0 0 1-1-1v-3h16v3a1 1 0 0 1-1 1z" />
      <path
        d="M4.707 27.478c.391.365.391.956 0 1.321s-1.024.365-1.414 0c-.391-.365-.391-.956 0-1.321s1.024-.365 1.414 0z" />
    </symbol>
</defs>
</svg>
